<svg xmlns="http://www.w3.org/2000/svg" viewBox="0 0 575 338" fill="none">
  <g id="HalftoneFade">
    <circle cx="42.12" cy="132.0" r="1.16" fill="#00676B" />
    <circle cx="42.12" cy="169.0" r="1.22" fill="#00676B" />
    <circle cx="42.12" cy="206.0" r="1.16" fill="#00676B" />
    <circle cx="73.28" cy="62.0" r="1.2" fill="#00676B" />
    <circle cx="73.28" cy="96.06" r="1.63" fill="#00676B" />
    <circle cx="73.28" cy="132.0" r="1.91" fill="#00676B" />
    <circle cx="73.28" cy="169.0" r="2.0" fill="#00676B" />
    <circle cx="73.28" cy="206.0" r="1.91" fill="#00676B" />
    <circle cx="73.28" cy="241.94" r="1.63" fill="#00676B" />
    <circle cx="73.28" cy="276.0" r="1.2" fill="#00676B" />
    <circle cx="105.94" cy="62.0" r="1.62" fill="#00676B" />
    <circle cx="105.94" cy="96.06" r="2.2" fill="#00676B" />
    <circle cx="105.94" cy="132.0" r="2.58" fill="#00676B" />
    <circle cx="105.94" cy="169.0" r="2.71" fill="#00676B" />
    <circle cx="105.94" cy="206.0" r="2.58" fill="#00676B" />
    <circle cx="105.94" cy="241.94" r="2.2" fill="#00676B" />
    <circle cx="105.94" cy="276.0" r="1.62" fill="#00676B" />
    <circle cx="140.03" cy="30.22" r="1.08" fill="#00676B" />
    <circle cx="140.03" cy="62.0" r="1.99" fill="#00676B" />
    <circle cx="140.03" cy="96.06" r="2.7" fill="#00676B" />
    <circle cx="140.03" cy="132.0" r="3.16" fill="#00676B" />
    <circle cx="140.03" cy="169.0" r="3.32" fill="#00676B" />
    <circle cx="140.03" cy="206.0" r="3.16" fill="#00676B" />
    <circle cx="140.03" cy="241.94" r="2.7" fill="#00676B" />
    <circle cx="140.03" cy="276.0" r="1.99" fill="#00676B" />
    <circle cx="140.03" cy="307.78" r="1.08" fill="#00676B" />
    <circle cx="175.44" cy="30.22" r="1.24" fill="#00676B" />
    <circle cx="175.44" cy="62.0" r="2.29" fill="#00676B" />
    <circle cx="175.44" cy="96.06" r="3.11" fill="#00676B" />
    <circle cx="175.44" cy="132.0" r="3.63" fill="#00676B" />
    <circle cx="175.44" cy="169.0" r="3.82" fill="#00676B" />
    <circle cx="175.44" cy="206.0" r="3.63" fill="#00676B" />
    <circle cx="175.44" cy="241.94" r="3.11" fill="#00676B" />
    <circle cx="175.44" cy="276.0" r="2.29" fill="#00676B" />
    <circle cx="175.44" cy="307.78" r="1.24" fill="#00676B" />
    <circle cx="212.01" cy="30.22" r="1.36" fill="#00676B" />
    <circle cx="212.01" cy="62.0" r="2.51" fill="#00676B" />
    <circle cx="212.01" cy="96.06" r="3.41" fill="#00676B" />
    <circle cx="212.01" cy="132.0" r="3.99" fill="#00676B" />
    <circle cx="212.01" cy="169.0" r="4.19" fill="#00676B" />
    <circle cx="212.01" cy="206.0" r="3.99" fill="#00676B" />
    <circle cx="212.01" cy="241.94" r="3.41" fill="#00676B" />
    <circle cx="212.01" cy="276.0" r="2.51" fill="#00676B" />
    <circle cx="212.01" cy="307.78" r="1.36" fill="#00676B" />
    <circle cx="249.5" cy="30.22" r="1.44" fill="#00676B" />
    <circle cx="249.5" cy="62.0" r="2.65" fill="#00676B" />
    <circle cx="249.5" cy="96.06" r="3.6" fill="#00676B" />
    <circle cx="249.5" cy="132.0" r="4.21" fill="#00676B" />
    <circle cx="249.5" cy="169.0" r="4.42" fill="#00676B" />
    <circle cx="249.5" cy="206.0" r="4.21" fill="#00676B" />
    <circle cx="249.5" cy="241.94" r="3.6" fill="#00676B" />
    <circle cx="249.5" cy="276.0" r="2.65" fill="#00676B" />
    <circle cx="249.5" cy="307.78" r="1.44" fill="#00676B" />
    <circle cx="287.5" cy="30.22" r="1.47" fill="#00676B" />
    <circle cx="287.5" cy="62.0" r="2.7" fill="#00676B" />
    <circle cx="287.5" cy="96.06" r="3.66" fill="#00676B" />
    <circle cx="287.5" cy="132.0" r="4.28" fill="#00676B" />
    <circle cx="287.5" cy="169.0" r="4.5" fill="#00676B" />
    <circle cx="287.5" cy="206.0" r="4.28" fill="#00676B" />
    <circle cx="287.5" cy="241.94" r="3.66" fill="#00676B" />
    <circle cx="287.5" cy="276.0" r="2.7" fill="#00676B" />
    <circle cx="287.5" cy="307.78" r="1.47" fill="#00676B" />
    <circle cx="325.5" cy="30.22" r="1.44" fill="#00676B" />
    <circle cx="325.5" cy="62.0" r="2.65" fill="#00676B" />
    <circle cx="325.5" cy="96.06" r="3.6" fill="#00676B" />
    <circle cx="325.5" cy="132.0" r="4.21" fill="#00676B" />
    <circle cx="325.5" cy="169.0" r="4.42" fill="#00676B" />
    <circle cx="325.5" cy="206.0" r="4.21" fill="#00676B" />
    <circle cx="325.5" cy="241.94" r="3.6" fill="#00676B" />
    <circle cx="325.5" cy="276.0" r="2.65" fill="#00676B" />
    <circle cx="325.5" cy="307.78" r="1.44" fill="#00676B" />
    <circle cx="362.99" cy="30.22" r="1.36" fill="#00676B" />
    <circle cx="362.99" cy="62.0" r="2.51" fill="#00676B" />
    <circle cx="362.99" cy="96.06" r="3.41" fill="#00676B" />
    <circle cx="362.99" cy="132.0" r="3.99" fill="#00676B" />
    <circle cx="362.99" cy="169.0" r="4.19" fill="#00676B" />
    <circle cx="362.99" cy="206.0" r="3.99" fill="#00676B" />
    <circle cx="362.99" cy="241.94" r="3.41" fill="#00676B" />
    <circle cx="362.99" cy="276.0" r="2.51" fill="#00676B" />
    <circle cx="362.99" cy="307.78" r="1.36" fill="#00676B" />
    <circle cx="399.56" cy="30.22" r="1.24" fill="#00676B" />
    <circle cx="399.56" cy="62.0" r="2.29" fill="#00676B" />
    <circle cx="399.56" cy="96.06" r="3.11" fill="#00676B" />
    <circle cx="399.56" cy="132.0" r="3.63" fill="#00676B" />
    <circle cx="399.56" cy="169.0" r="3.82" fill="#00676B" />
    <circle cx="399.56" cy="206.0" r="3.63" fill="#00676B" />
    <circle cx="399.56" cy="241.94" r="3.11" fill="#00676B" />
    <circle cx="399.56" cy="276.0" r="2.29" fill="#00676B" />
    <circle cx="399.56" cy="307.78" r="1.24" fill="#00676B" />
    <circle cx="434.97" cy="30.22" r="1.08" fill="#00676B" />
    <circle cx="434.97" cy="62.0" r="1.99" fill="#00676B" />
    <circle cx="434.97" cy="96.06" r="2.7" fill="#00676B" />
    <circle cx="434.97" cy="132.0" r="3.16" fill="#00676B" />
    <circle cx="434.97" cy="169.0" r="3.32" fill="#00676B" />
    <circle cx="434.97" cy="206.0" r="3.16" fill="#00676B" />
    <circle cx="434.97" cy="241.94" r="2.7" fill="#00676B" />
    <circle cx="434.97" cy="276.0" r="1.99" fill="#00676B" />
    <circle cx="434.97" cy="307.78" r="1.08" fill="#00676B" />
    <circle cx="469.06" cy="62.0" r="1.62" fill="#00676B" />
    <circle cx="469.06" cy="96.06" r="2.2" fill="#00676B" />
    <circle cx="469.06" cy="132.0" r="2.58" fill="#00676B" />
    <circle cx="469.06" cy="169.0" r="2.71" fill="#00676B" />
    <circle cx="469.06" cy="206.0" r="2.58" fill="#00676B" />
    <circle cx="469.06" cy="241.94" r="2.2" fill="#00676B" />
    <circle cx="469.06" cy="276.0" r="1.62" fill="#00676B" />
    <circle cx="501.72" cy="62.0" r="1.2" fill="#00676B" />
    <circle cx="501.72" cy="96.06" r="1.63" fill="#00676B" />
    <circle cx="501.72" cy="132.0" r="1.91" fill="#00676B" />
    <circle cx="501.72" cy="169.0" r="2.0" fill="#00676B" />
    <circle cx="501.72" cy="206.0" r="1.91" fill="#00676B" />
    <circle cx="501.72" cy="241.94" r="1.63" fill="#00676B" />
    <circle cx="501.72" cy="276.0" r="1.2" fill="#00676B" />
    <circle cx="532.88" cy="132.0" r="1.16" fill="#00676B" />
    <circle cx="532.88" cy="169.0" r="1.22" fill="#00676B" />
    <circle cx="532.88" cy="206.0" r="1.16" fill="#00676B" />
  </g>
</svg>
