<svg xmlns="http://www.w3.org/2000/svg" viewBox="29 1628 550 320" fill="none"><g id="Group">
<path id="Vector" d="M52.029 1678.2C57.3629 1678.2 61.6869 1674.06 61.6869 1668.94C61.6869 1663.83 57.3629 1659.68 52.029 1659.68C46.6951 1659.68 42.3711 1663.83 42.3711 1668.94C42.3711 1674.06 46.6951 1678.2 52.029 1678.2Z" fill="#00676B" />
<path id="Vector_2" d="M96.4733 1678.2C101.807 1678.2 106.131 1674.06 106.131 1668.94C106.131 1663.83 101.807 1659.68 96.4733 1659.68C91.1394 1659.68 86.8154 1663.83 86.8154 1668.94C86.8154 1674.06 91.1394 1678.2 96.4733 1678.2Z" fill="#00676B" />
<path id="Vector_3" d="M140.919 1678.2C146.253 1678.2 150.577 1674.06 150.577 1668.94C150.577 1663.83 146.253 1659.68 140.919 1659.68C135.585 1659.68 131.261 1663.83 131.261 1668.94C131.261 1674.06 135.585 1678.2 140.919 1678.2Z" fill="#00676B" />
<path id="Vector_4" d="M185.363 1678.2C190.697 1678.2 195.021 1674.06 195.021 1668.94C195.021 1663.83 190.697 1659.68 185.363 1659.68C180.029 1659.68 175.705 1663.83 175.705 1668.94C175.705 1674.06 180.029 1678.2 185.363 1678.2Z" fill="#00676B" />
<path id="Vector_5" d="M229.807 1678.2C235.141 1678.2 239.465 1674.06 239.465 1668.94C239.465 1663.83 235.141 1659.68 229.807 1659.68C224.473 1659.68 220.149 1663.83 220.149 1668.94C220.149 1674.06 224.473 1678.2 229.807 1678.2Z" fill="#00676B" />
<path id="Vector_6" d="M274.252 1678.2C279.586 1678.2 283.91 1674.06 283.91 1668.94C283.91 1663.83 279.586 1659.68 274.252 1659.68C268.918 1659.68 264.594 1663.83 264.594 1668.94C264.594 1674.06 268.918 1678.2 274.252 1678.2Z" fill="#00676B" />
<path id="Vector_7" d="M318.696 1678.2C324.03 1678.2 328.354 1674.06 328.354 1668.94C328.354 1663.83 324.03 1659.68 318.696 1659.68C313.362 1659.68 309.038 1663.83 309.038 1668.94C309.038 1674.06 313.362 1678.2 318.696 1678.2Z" fill="#00676B" />
<path id="Vector_8" d="M363.14 1678.2C368.474 1678.2 372.798 1674.06 372.798 1668.94C372.798 1663.83 368.474 1659.68 363.14 1659.68C357.806 1659.68 353.482 1663.83 353.482 1668.94C353.482 1674.06 357.806 1678.2 363.14 1678.2Z" fill="#00676B" />
<path id="Vector_9" d="M407.585 1678.2C412.919 1678.2 417.243 1674.06 417.243 1668.94C417.243 1663.83 412.919 1659.68 407.585 1659.68C402.251 1659.68 397.927 1663.83 397.927 1668.94C397.927 1674.06 402.251 1678.2 407.585 1678.2Z" fill="#00676B" />
<path id="Vector_10" d="M452.029 1678.2C457.363 1678.2 461.687 1674.06 461.687 1668.94C461.687 1663.83 457.363 1659.68 452.029 1659.68C446.695 1659.68 442.371 1663.83 442.371 1668.94C442.371 1674.06 446.695 1678.2 452.029 1678.2Z" fill="#00676B" />
<path id="Vector_11" d="M496.473 1678.2C501.807 1678.2 506.131 1674.06 506.131 1668.94C506.131 1663.83 501.807 1659.68 496.473 1659.68C491.139 1659.68 486.815 1663.83 486.815 1668.94C486.815 1674.06 491.139 1678.2 496.473 1678.2Z" fill="#00676B" />
<path id="Vector_12" d="M52.029 1720.82C57.3629 1720.82 61.6869 1716.68 61.6869 1711.56C61.6869 1706.45 57.3629 1702.3 52.029 1702.3C46.6951 1702.3 42.3711 1706.45 42.3711 1711.56C42.3711 1716.68 46.6951 1720.82 52.029 1720.82Z" fill="#00676B" />
<path id="Vector_13" d="M96.4733 1720.82C101.807 1720.82 106.131 1716.68 106.131 1711.56C106.131 1706.45 101.807 1702.3 96.4733 1702.3C91.1394 1702.3 86.8154 1706.45 86.8154 1711.56C86.8154 1716.68 91.1394 1720.82 96.4733 1720.82Z" fill="#00676B" />
<path id="Vector_14" d="M140.919 1720.82C146.253 1720.82 150.577 1716.68 150.577 1711.56C150.577 1706.45 146.253 1702.3 140.919 1702.3C135.585 1702.3 131.261 1706.45 131.261 1711.56C131.261 1716.68 135.585 1720.82 140.919 1720.82Z" fill="#00676B" />
<path id="Vector_15" d="M185.363 1720.82C190.697 1720.82 195.021 1716.68 195.021 1711.56C195.021 1706.45 190.697 1702.3 185.363 1702.3C180.029 1702.3 175.705 1706.45 175.705 1711.56C175.705 1716.68 180.029 1720.82 185.363 1720.82Z" fill="#00676B" />
<path id="Vector_16" d="M229.807 1720.82C235.141 1720.82 239.465 1716.68 239.465 1711.56C239.465 1706.45 235.141 1702.3 229.807 1702.3C224.473 1702.3 220.149 1706.45 220.149 1711.56C220.149 1716.68 224.473 1720.82 229.807 1720.82Z" fill="#00676B" />
<path id="Vector_17" d="M274.252 1720.82C279.586 1720.82 283.91 1716.68 283.91 1711.56C283.91 1706.45 279.586 1702.3 274.252 1702.3C268.918 1702.3 264.594 1706.45 264.594 1711.56C264.594 1716.68 268.918 1720.82 274.252 1720.82Z" fill="#00676B" />
<path id="Vector_18" d="M318.696 1720.82C324.03 1720.82 328.354 1716.68 328.354 1711.56C328.354 1706.45 324.03 1702.3 318.696 1702.3C313.362 1702.3 309.038 1706.45 309.038 1711.56C309.038 1716.68 313.362 1720.82 318.696 1720.82Z" fill="#00676B" />
<path id="Vector_19" d="M363.14 1720.82C368.474 1720.82 372.798 1716.68 372.798 1711.56C372.798 1706.45 368.474 1702.3 363.14 1702.3C357.806 1702.3 353.482 1706.45 353.482 1711.56C353.482 1716.68 357.806 1720.82 363.14 1720.82Z" fill="#00676B" />
<path id="Vector_20" d="M407.585 1720.82C412.919 1720.82 417.243 1716.68 417.243 1711.56C417.243 1706.45 412.919 1702.3 407.585 1702.3C402.251 1702.3 397.927 1706.45 397.927 1711.56C397.927 1716.68 402.251 1720.82 407.585 1720.82Z" fill="#00676B" />
<path id="Vector_21" d="M452.029 1720.82C457.363 1720.82 461.687 1716.68 461.687 1711.56C461.687 1706.45 457.363 1702.3 452.029 1702.3C446.695 1702.3 442.371 1706.45 442.371 1711.56C442.371 1716.68 446.695 1720.82 452.029 1720.82Z" fill="#00676B" />
<path id="Vector_22" d="M496.473 1720.82C501.807 1720.82 506.131 1716.68 506.131 1711.56C506.131 1706.45 501.807 1702.3 496.473 1702.3C491.139 1702.3 486.815 1706.45 486.815 1711.56C486.815 1716.68 491.139 1720.82 496.473 1720.82Z" fill="#00676B" />
<path id="Vector_23" d="M52.029 1763.44C57.3629 1763.44 61.6869 1759.29 61.6869 1754.18C61.6869 1749.06 57.3629 1744.92 52.029 1744.92C46.6951 1744.92 42.3711 1749.06 42.3711 1754.18C42.3711 1759.29 46.6951 1763.44 52.029 1763.44Z" fill="#00676B" />
<path id="Vector_24" d="M96.4733 1763.44C101.807 1763.44 106.131 1759.29 106.131 1754.18C106.131 1749.06 101.807 1744.92 96.4733 1744.92C91.1394 1744.92 86.8154 1749.06 86.8154 1754.18C86.8154 1759.29 91.1394 1763.44 96.4733 1763.44Z" fill="#00676B" />
<path id="Vector_25" d="M140.919 1763.44C146.253 1763.44 150.577 1759.29 150.577 1754.18C150.577 1749.06 146.253 1744.92 140.919 1744.92C135.585 1744.92 131.261 1749.06 131.261 1754.18C131.261 1759.29 135.585 1763.44 140.919 1763.44Z" fill="#00676B" />
<path id="Vector_26" d="M185.363 1763.44C190.697 1763.44 195.021 1759.29 195.021 1754.18C195.021 1749.06 190.697 1744.92 185.363 1744.92C180.029 1744.92 175.705 1749.06 175.705 1754.18C175.705 1759.29 180.029 1763.44 185.363 1763.44Z" fill="#00676B" />
<path id="Vector_27" d="M229.807 1763.44C235.141 1763.44 239.465 1759.29 239.465 1754.18C239.465 1749.06 235.141 1744.92 229.807 1744.92C224.473 1744.92 220.149 1749.06 220.149 1754.18C220.149 1759.29 224.473 1763.44 229.807 1763.44Z" fill="#00676B" />
<path id="Vector_28" d="M274.252 1763.44C279.586 1763.44 283.91 1759.29 283.91 1754.18C283.91 1749.06 279.586 1744.92 274.252 1744.92C268.918 1744.92 264.594 1749.06 264.594 1754.18C264.594 1759.29 268.918 1763.44 274.252 1763.44Z" fill="#00676B" />
<path id="Vector_29" d="M318.696 1763.44C324.03 1763.44 328.354 1759.29 328.354 1754.18C328.354 1749.06 324.03 1744.92 318.696 1744.92C313.362 1744.92 309.038 1749.06 309.038 1754.18C309.038 1759.29 313.362 1763.44 318.696 1763.44Z" fill="#00676B" />
<path id="Vector_30" d="M363.14 1763.44C368.474 1763.44 372.798 1759.29 372.798 1754.18C372.798 1749.06 368.474 1744.92 363.14 1744.92C357.806 1744.92 353.482 1749.06 353.482 1754.18C353.482 1759.29 357.806 1763.44 363.14 1763.44Z" fill="#00676B" />
<path id="Vector_31" d="M407.585 1763.44C412.919 1763.44 417.243 1759.29 417.243 1754.18C417.243 1749.06 412.919 1744.92 407.585 1744.92C402.251 1744.92 397.927 1749.06 397.927 1754.18C397.927 1759.29 402.251 1763.44 407.585 1763.44Z" fill="#00676B" />
<path id="Vector_32" d="M452.029 1763.44C457.363 1763.44 461.687 1759.29 461.687 1754.18C461.687 1749.06 457.363 1744.92 452.029 1744.92C446.695 1744.92 442.371 1749.06 442.371 1754.18C442.371 1759.29 446.695 1763.44 452.029 1763.44Z" fill="#00676B" />
<path id="Vector_33" d="M496.473 1763.44C501.807 1763.44 506.131 1759.29 506.131 1754.18C506.131 1749.06 501.807 1744.92 496.473 1744.92C491.139 1744.92 486.815 1749.06 486.815 1754.18C486.815 1759.29 491.139 1763.44 496.473 1763.44Z" fill="#00676B" />
<path id="Vector_34" d="M52.029 1806.06C57.3629 1806.06 61.6869 1801.91 61.6869 1796.8C61.6869 1791.68 57.3629 1787.54 52.029 1787.54C46.6951 1787.54 42.3711 1791.68 42.3711 1796.8C42.3711 1801.91 46.6951 1806.06 52.029 1806.06Z" fill="#00676B" />
<path id="Vector_35" d="M96.4733 1806.06C101.807 1806.06 106.131 1801.91 106.131 1796.8C106.131 1791.68 101.807 1787.54 96.4733 1787.54C91.1394 1787.54 86.8154 1791.68 86.8154 1796.8C86.8154 1801.91 91.1394 1806.06 96.4733 1806.06Z" fill="#00676B" />
<path id="Vector_36" d="M140.919 1806.06C146.253 1806.06 150.577 1801.91 150.577 1796.8C150.577 1791.68 146.253 1787.54 140.919 1787.54C135.585 1787.54 131.261 1791.68 131.261 1796.8C131.261 1801.91 135.585 1806.06 140.919 1806.06Z" fill="#00676B" />
<path id="Vector_37" d="M185.363 1806.06C190.697 1806.06 195.021 1801.91 195.021 1796.8C195.021 1791.68 190.697 1787.54 185.363 1787.54C180.029 1787.54 175.705 1791.68 175.705 1796.8C175.705 1801.91 180.029 1806.06 185.363 1806.06Z" fill="#00676B" />
<path id="Vector_38" d="M229.807 1806.06C235.141 1806.06 239.465 1801.91 239.465 1796.8C239.465 1791.68 235.141 1787.54 229.807 1787.54C224.473 1787.54 220.149 1791.68 220.149 1796.8C220.149 1801.91 224.473 1806.06 229.807 1806.06Z" fill="#00676B" />
<path id="Vector_39" d="M274.252 1806.06C279.586 1806.06 283.91 1801.91 283.91 1796.8C283.91 1791.68 279.586 1787.54 274.252 1787.54C268.918 1787.54 264.594 1791.68 264.594 1796.8C264.594 1801.91 268.918 1806.06 274.252 1806.06Z" fill="#00676B" />
<path id="Vector_40" d="M318.696 1806.06C324.03 1806.06 328.354 1801.91 328.354 1796.8C328.354 1791.68 324.03 1787.54 318.696 1787.54C313.362 1787.54 309.038 1791.68 309.038 1796.8C309.038 1801.91 313.362 1806.06 318.696 1806.06Z" fill="#00676B" />
<path id="Vector_41" d="M363.14 1806.06C368.474 1806.06 372.798 1801.91 372.798 1796.8C372.798 1791.68 368.474 1787.54 363.14 1787.54C357.806 1787.54 353.482 1791.68 353.482 1796.8C353.482 1801.91 357.806 1806.06 363.14 1806.06Z" fill="#00676B" />
<path id="Vector_42" d="M407.585 1806.06C412.919 1806.06 417.243 1801.91 417.243 1796.8C417.243 1791.68 412.919 1787.54 407.585 1787.54C402.251 1787.54 397.927 1791.68 397.927 1796.8C397.927 1801.91 402.251 1806.06 407.585 1806.06Z" fill="#00676B" />
<path id="Vector_43" d="M452.029 1806.06C457.363 1806.06 461.687 1801.91 461.687 1796.8C461.687 1791.68 457.363 1787.54 452.029 1787.54C446.695 1787.54 442.371 1791.68 442.371 1796.8C442.371 1801.91 446.695 1806.06 452.029 1806.06Z" fill="#00676B" />
<path id="Vector_44" d="M496.473 1806.06C501.807 1806.06 506.131 1801.91 506.131 1796.8C506.131 1791.68 501.807 1787.54 496.473 1787.54C491.139 1787.54 486.815 1791.68 486.815 1796.8C486.815 1801.91 491.139 1806.06 496.473 1806.06Z" fill="#00676B" />
<path id="Vector_45" d="M52.029 1848.68C57.3629 1848.68 61.6869 1844.53 61.6869 1839.42C61.6869 1834.3 57.3629 1830.16 52.029 1830.16C46.6951 1830.16 42.3711 1834.3 42.3711 1839.42C42.3711 1844.53 46.6951 1848.68 52.029 1848.68Z" fill="#00676B" />
<path id="Vector_46" d="M96.4733 1848.68C101.807 1848.68 106.131 1844.53 106.131 1839.42C106.131 1834.3 101.807 1830.16 96.4733 1830.16C91.1394 1830.16 86.8154 1834.3 86.8154 1839.42C86.8154 1844.53 91.1394 1848.68 96.4733 1848.68Z" fill="#00676B" />
<path id="Vector_47" d="M140.919 1848.68C146.253 1848.68 150.577 1844.53 150.577 1839.42C150.577 1834.3 146.253 1830.16 140.919 1830.16C135.585 1830.16 131.261 1834.3 131.261 1839.42C131.261 1844.53 135.585 1848.68 140.919 1848.68Z" fill="#00676B" />
<path id="Vector_48" d="M185.363 1848.68C190.697 1848.68 195.021 1844.53 195.021 1839.42C195.021 1834.3 190.697 1830.16 185.363 1830.16C180.029 1830.16 175.705 1834.3 175.705 1839.42C175.705 1844.53 180.029 1848.68 185.363 1848.68Z" fill="#00676B" />
<path id="Vector_49" d="M229.807 1848.68C235.141 1848.68 239.465 1844.53 239.465 1839.42C239.465 1834.3 235.141 1830.16 229.807 1830.16C224.473 1830.16 220.149 1834.3 220.149 1839.42C220.149 1844.53 224.473 1848.68 229.807 1848.68Z" fill="#00676B" />
<path id="Vector_50" d="M274.252 1848.68C279.586 1848.68 283.91 1844.53 283.91 1839.42C283.91 1834.3 279.586 1830.16 274.252 1830.16C268.918 1830.16 264.594 1834.3 264.594 1839.42C264.594 1844.53 268.918 1848.68 274.252 1848.68Z" fill="#00676B" />
<path id="Vector_51" d="M318.696 1848.68C324.03 1848.68 328.354 1844.53 328.354 1839.42C328.354 1834.3 324.03 1830.16 318.696 1830.16C313.362 1830.16 309.038 1834.3 309.038 1839.42C309.038 1844.53 313.362 1848.68 318.696 1848.68Z" fill="#00676B" />
<path id="Vector_52" d="M363.14 1848.68C368.474 1848.68 372.798 1844.53 372.798 1839.42C372.798 1834.3 368.474 1830.16 363.14 1830.16C357.806 1830.16 353.482 1834.3 353.482 1839.42C353.482 1844.53 357.806 1848.68 363.14 1848.68Z" fill="#00676B" />
<path id="Vector_53" d="M407.585 1848.68C412.919 1848.68 417.243 1844.53 417.243 1839.42C417.243 1834.3 412.919 1830.16 407.585 1830.16C402.251 1830.16 397.927 1834.3 397.927 1839.42C397.927 1844.53 402.251 1848.68 407.585 1848.68Z" fill="#00676B" />
<path id="Vector_54" d="M452.029 1848.68C457.363 1848.68 461.687 1844.53 461.687 1839.42C461.687 1834.3 457.363 1830.16 452.029 1830.16C446.695 1830.16 442.371 1834.3 442.371 1839.42C442.371 1844.53 446.695 1848.68 452.029 1848.68Z" fill="#00676B" />
<path id="Vector_55" d="M496.473 1848.68C501.807 1848.68 506.131 1844.53 506.131 1839.42C506.131 1834.3 501.807 1830.16 496.473 1830.16C491.139 1830.16 486.815 1834.3 486.815 1839.42C486.815 1844.53 491.139 1848.68 496.473 1848.68Z" fill="#00676B" />
<path id="Vector_56" d="M52.029 1891.3C57.3629 1891.3 61.6869 1887.15 61.6869 1882.04C61.6869 1876.92 57.3629 1872.77 52.029 1872.77C46.6951 1872.77 42.3711 1876.92 42.3711 1882.04C42.3711 1887.15 46.6951 1891.3 52.029 1891.3Z" fill="#00676B" />
<path id="Vector_57" d="M96.4733 1891.3C101.807 1891.3 106.131 1887.15 106.131 1882.04C106.131 1876.92 101.807 1872.77 96.4733 1872.77C91.1394 1872.77 86.8154 1876.92 86.8154 1882.04C86.8154 1887.15 91.1394 1891.3 96.4733 1891.3Z" fill="#00676B" />
<path id="Vector_58" d="M140.919 1891.3C146.253 1891.3 150.577 1887.15 150.577 1882.04C150.577 1876.92 146.253 1872.77 140.919 1872.77C135.585 1872.77 131.261 1876.92 131.261 1882.04C131.261 1887.15 135.585 1891.3 140.919 1891.3Z" fill="#00676B" />
<path id="Vector_59" d="M185.363 1891.3C190.697 1891.3 195.021 1887.15 195.021 1882.04C195.021 1876.92 190.697 1872.77 185.363 1872.77C180.029 1872.77 175.705 1876.92 175.705 1882.04C175.705 1887.15 180.029 1891.3 185.363 1891.3Z" fill="#00676B" />
<path id="Vector_60" d="M229.807 1891.3C235.141 1891.3 239.465 1887.15 239.465 1882.04C239.465 1876.92 235.141 1872.77 229.807 1872.77C224.473 1872.77 220.149 1876.92 220.149 1882.04C220.149 1887.15 224.473 1891.3 229.807 1891.3Z" fill="#00676B" />
<path id="Vector_61" d="M274.252 1891.3C279.586 1891.3 283.91 1887.15 283.91 1882.04C283.91 1876.92 279.586 1872.77 274.252 1872.77C268.918 1872.77 264.594 1876.92 264.594 1882.04C264.594 1887.15 268.918 1891.3 274.252 1891.3Z" fill="#00676B" />
<path id="Vector_62" d="M318.696 1891.3C324.03 1891.3 328.354 1887.15 328.354 1882.04C328.354 1876.92 324.03 1872.77 318.696 1872.77C313.362 1872.77 309.038 1876.92 309.038 1882.04C309.038 1887.15 313.362 1891.3 318.696 1891.3Z" fill="#00676B" />
<path id="Vector_63" d="M363.14 1891.3C368.474 1891.3 372.798 1887.15 372.798 1882.04C372.798 1876.92 368.474 1872.77 363.14 1872.77C357.806 1872.77 353.482 1876.92 353.482 1882.04C353.482 1887.15 357.806 1891.3 363.14 1891.3Z" fill="#00676B" />
<path id="Vector_64" d="M407.585 1891.3C412.919 1891.3 417.243 1887.15 417.243 1882.04C417.243 1876.92 412.919 1872.77 407.585 1872.77C402.251 1872.77 397.927 1876.92 397.927 1882.04C397.927 1887.15 402.251 1891.3 407.585 1891.3Z" fill="#00676B" />
<path id="Vector_65" d="M452.029 1891.3C457.363 1891.3 461.687 1887.15 461.687 1882.04C461.687 1876.92 457.363 1872.77 452.029 1872.77C446.695 1872.77 442.371 1876.92 442.371 1882.04C442.371 1887.15 446.695 1891.3 452.029 1891.3Z" fill="#00676B" />
<path id="Vector_66" d="M496.473 1891.3C501.807 1891.3 506.131 1887.15 506.131 1882.04C506.131 1876.92 501.807 1872.77 496.473 1872.77C491.139 1872.77 486.815 1876.92 486.815 1882.04C486.815 1887.15 491.139 1891.3 496.473 1891.3Z" fill="#00676B" />
<path id="Vector_67" d="M52.029 1933.92C57.3629 1933.92 61.6869 1929.77 61.6869 1924.65C61.6869 1919.54 57.3629 1915.39 52.029 1915.39C46.6951 1915.39 42.3711 1919.54 42.3711 1924.65C42.3711 1929.77 46.6951 1933.92 52.029 1933.92Z" fill="#00676B" />
<path id="Vector_68" d="M96.4733 1933.92C101.807 1933.92 106.131 1929.77 106.131 1924.65C106.131 1919.54 101.807 1915.39 96.4733 1915.39C91.1394 1915.39 86.8154 1919.54 86.8154 1924.65C86.8154 1929.77 91.1394 1933.92 96.4733 1933.92Z" fill="#00676B" />
<path id="Vector_69" d="M140.919 1933.92C146.253 1933.92 150.577 1929.77 150.577 1924.65C150.577 1919.54 146.253 1915.39 140.919 1915.39C135.585 1915.39 131.261 1919.54 131.261 1924.65C131.261 1929.77 135.585 1933.92 140.919 1933.92Z" fill="#00676B" />
<path id="Vector_70" d="M185.363 1933.92C190.697 1933.92 195.021 1929.77 195.021 1924.65C195.021 1919.54 190.697 1915.39 185.363 1915.39C180.029 1915.39 175.705 1919.54 175.705 1924.65C175.705 1929.77 180.029 1933.92 185.363 1933.92Z" fill="#00676B" />
<path id="Vector_71" d="M229.807 1933.92C235.141 1933.92 239.465 1929.77 239.465 1924.65C239.465 1919.54 235.141 1915.39 229.807 1915.39C224.473 1915.39 220.149 1919.54 220.149 1924.65C220.149 1929.77 224.473 1933.92 229.807 1933.92Z" fill="#00676B" />
<path id="Vector_72" d="M274.252 1933.92C279.586 1933.92 283.91 1929.77 283.91 1924.65C283.91 1919.54 279.586 1915.39 274.252 1915.39C268.918 1915.39 264.594 1919.54 264.594 1924.65C264.594 1929.77 268.918 1933.92 274.252 1933.92Z" fill="#00676B" />
<path id="Vector_73" d="M318.696 1933.92C324.03 1933.92 328.354 1929.77 328.354 1924.65C328.354 1919.54 324.03 1915.39 318.696 1915.39C313.362 1915.39 309.038 1919.54 309.038 1924.65C309.038 1929.77 313.362 1933.92 318.696 1933.92Z" fill="#00676B" />
<path id="Vector_74" d="M363.14 1933.92C368.474 1933.92 372.798 1929.77 372.798 1924.65C372.798 1919.54 368.474 1915.39 363.14 1915.39C357.806 1915.39 353.482 1919.54 353.482 1924.65C353.482 1929.77 357.806 1933.92 363.14 1933.92Z" fill="#00676B" />
<path id="Vector_75" d="M407.585 1933.92C412.919 1933.92 417.243 1929.77 417.243 1924.65C417.243 1919.54 412.919 1915.39 407.585 1915.39C402.251 1915.39 397.927 1919.54 397.927 1924.65C397.927 1929.77 402.251 1933.92 407.585 1933.92Z" fill="#00676B" />
<path id="Vector_76" d="M452.029 1933.92C457.363 1933.92 461.687 1929.77 461.687 1924.65C461.687 1919.54 457.363 1915.39 452.029 1915.39C446.695 1915.39 442.371 1919.54 442.371 1924.65C442.371 1929.77 446.695 1933.92 452.029 1933.92Z" fill="#00676B" />
<path id="Vector_77" d="M496.473 1933.92C501.807 1933.92 506.131 1929.77 506.131 1924.65C506.131 1919.54 501.807 1915.39 496.473 1915.39C491.139 1915.39 486.815 1919.54 486.815 1924.65C486.815 1929.77 491.139 1933.92 496.473 1933.92Z" fill="#00676B" />
</g>
</svg>